<?xml version="1.0" encoding="utf-8"?>
<!-- Generator: Adobe Illustrator 24.2.3, SVG Export Plug-In . SVG Version: 6.00 Build 0)  -->
<svg version="1.1" id="Слой_1" xmlns="http://www.w3.org/2000/svg" xmlns:xlink="http://www.w3.org/1999/xlink" x="0px" y="0px"
	 viewBox="0 0 600 600" style="enable-background:new 0 0 600 600;" xml:space="preserve">
<style type="text/css">
	.st0{fill:url(#SVGID_1_);}
	.st1{fill:#8DC641;}
	.st2{fill:#FFFFFF;}
</style>
<linearGradient id="SVGID_1_" gradientUnits="userSpaceOnUse" x1="100.9861" y1="546.3096" x2="462.9861" y2="110.3096" gradientTransform="matrix(1 0 0 -1 0 602)">
	<stop  offset="0" style="stop-color:#333333"/>
	<stop  offset="1" style="stop-color:#000000"/>
</linearGradient>
<circle class="st0" cx="303" cy="299" r="264"/>
<path class="st1" d="M300,13C141.5,13,13,141.5,13,300s128.5,287,287,287s287-128.5,287-287S458.5,13,300,13z M300,555.4
	C158.9,555.4,44.6,441.1,44.6,300S158.9,44.6,300,44.6S555.4,158.9,555.4,300S441.1,555.4,300,555.4z"/>
<path class="st2" d="M400.2,234.8l-64,94.9h64V234.8z M424.5,196.4v133.3h28.1v24.1h-28.1v49.8h-24.3v-49.8h-90.4v-26L401,196.4
	H424.5z M282.9,379.4v24.2H147.4v-0.7c1.3-22.7,7.2-39.3,18.4-53c9.2-11.3,20.3-19.8,43.2-34.1c-0.1,0,8.1-5.1,10.4-6.6
	c12.3-7.9,20.2-14,26.4-21.2c7.8-9.1,11.9-19,11.9-30.6c0-22.6-16-38.2-39.1-38.2c-26.8,0-40.6,20.4-41.4,51.1v0.6h-24.1v-0.6
	l-0.3-5.6c0-41,26.7-68.3,66.9-68.3c39.3,0,64.9,23.8,64.9,60.5c0,18.7-6.7,33.9-19.6,47.4c-9.7,10.1-19.7,17-42.3,30.7
	c-0.3,0.2-0.6,0.4-0.9,0.6c-1.1,0.6-6,3.5-7.3,4.3c-10.8,6.5-17.3,11-23.1,16.5c-7.1,6.8-11.8,14.2-14,23L282.9,379.4L282.9,379.4z"
	/>
</svg>
